<svg width="90" height="30" viewBox="0 0 90 30" fill="none" xmlns="http://www.w3.org/2000/svg">
<path d="M32.8043 0.922686C32.811 0.922686 32.8168 0.924287 32.8218 0.927489C32.8269 0.930691 32.8308 0.935236 32.8336 0.941124C32.8364 0.947011 32.8378 0.953829 32.8378 0.961576C32.8378 0.969426 32.8364 0.976346 32.8336 0.982337C32.8308 0.988225 32.8269 0.992821 32.8218 0.996127C32.8168 0.999432 32.811 1.00108 32.8043 1.00108C32.7985 1.00108 32.7933 0.999793 32.7888 0.997211C32.7845 0.994629 32.7812 0.990962 32.7789 0.986211V0.994577C32.7789 0.996436 32.7784 0.997934 32.7772 0.99907C32.7762 1.00021 32.7747 1.00077 32.7727 1.00077C32.7708 1.00077 32.7692 1.00021 32.7681 0.99907C32.7669 0.997934 32.7664 0.996436 32.7664 0.994577V0.896037C32.7664 0.894281 32.7669 0.892835 32.7681 0.891699C32.7692 0.890563 32.7708 0.889995 32.7727 0.889995C32.7747 0.889995 32.7762 0.890563 32.7772 0.891699C32.7784 0.892732 32.7789 0.894178 32.7789 0.896037V0.93756C32.7812 0.932809 32.7845 0.929142 32.7888 0.92656C32.7933 0.923977 32.7985 0.922686 32.8043 0.922686ZM32.8019 0.990704C32.8092 0.990704 32.8149 0.988173 32.8189 0.983112C32.8229 0.977947 32.8249 0.970769 32.8249 0.961576C32.8249 0.952589 32.8229 0.945617 32.8189 0.940659C32.8149 0.935701 32.8092 0.933222 32.8019 0.933222C32.7945 0.933222 32.7888 0.935701 32.7848 0.940659C32.7809 0.945617 32.7789 0.952692 32.7789 0.961885C32.7789 0.971078 32.7809 0.978205 32.7848 0.983267C32.7888 0.988225 32.7945 0.990704 32.8019 0.990704ZM32.915 0.982492C32.9161 0.982492 32.9171 0.982957 32.9179 0.983887C32.9187 0.984816 32.9192 0.986004 32.9192 0.98745C32.9192 0.990032 32.9173 0.992408 32.9137 0.994577C32.91 0.996746 32.9061 0.998399 32.902 0.999535C32.8978 1.00057 32.8938 1.00108 32.8899 1.00108C32.8782 1.00108 32.869 0.997624 32.8621 0.990704C32.8554 0.983783 32.8521 0.974229 32.8521 0.96204C32.8521 0.954294 32.8536 0.947476 32.8566 0.941589C32.8596 0.935598 32.8637 0.93095 32.8691 0.927644C32.8746 0.924339 32.8808 0.922686 32.8877 0.922686C32.8975 0.922686 32.9053 0.925888 32.9111 0.932292C32.9169 0.938696 32.9198 0.947373 32.9198 0.958322C32.9198 0.960388 32.9194 0.961885 32.9185 0.962815C32.9177 0.963745 32.9164 0.964209 32.9145 0.964209H32.8646C32.8655 0.981976 32.874 0.990859 32.8899 0.990859C32.8939 0.990859 32.8974 0.990342 32.9003 0.989309C32.9031 0.988173 32.9062 0.986675 32.9095 0.984816C32.9122 0.983267 32.914 0.982492 32.915 0.982492ZM32.8879 0.932447C32.8812 0.932447 32.8759 0.934513 32.8719 0.938645C32.868 0.942777 32.8656 0.948612 32.8649 0.956153H32.9088C32.9086 0.948509 32.9067 0.942673 32.903 0.938645C32.8994 0.934513 32.8944 0.932447 32.8879 0.932447ZM32.9762 0.922686C32.9943 0.922686 33.0033 0.932654 33.0033 0.952589V0.994577C33.0033 0.99654 33.0028 0.998089 33.0016 0.999225C33.0006 1.00026 32.9991 1.00077 32.9971 1.00077C32.9952 1.00077 32.9936 1.00026 32.9925 0.999225C32.9914 0.998089 32.9908 0.99654 32.9908 0.994577V0.953364C32.9908 0.94634 32.9894 0.941227 32.9866 0.938025C32.9839 0.934823 32.9796 0.933222 32.9736 0.933222C32.9667 0.933222 32.9611 0.93534 32.957 0.939574C32.9529 0.943809 32.9508 0.949542 32.9508 0.956773V0.994577C32.9508 0.99654 32.9502 0.998089 32.9491 0.999225C32.9481 1.00026 32.9466 1.00077 32.9446 1.00077C32.9427 1.00077 32.9411 1.00026 32.94 0.999225C32.9388 0.998089 32.9383 0.99654 32.9383 0.994577V0.929194C32.9383 0.927334 32.9388 0.925837 32.94 0.9247C32.9411 0.923564 32.9427 0.922996 32.9446 0.922996C32.9465 0.922996 32.9479 0.923564 32.949 0.9247C32.9501 0.925837 32.9507 0.927283 32.9507 0.929039V0.936941C32.9531 0.932292 32.9566 0.928781 32.961 0.926405C32.9655 0.923926 32.9705 0.922686 32.9762 0.922686ZM33.0612 0.990859C33.0648 0.991169 33.0666 0.992821 33.0666 0.995817C33.0666 0.997573 33.0659 0.998915 33.0646 0.999845C33.0634 1.00067 33.0614 1.00098 33.0589 1.00077L33.0547 1.00046C33.0464 0.999845 33.0403 0.997366 33.0364 0.993028C33.0325 0.98869 33.0305 0.982131 33.0305 0.973351V0.934462H33.0201C33.0184 0.934462 33.017 0.934048 33.0159 0.933222C33.015 0.932292 33.0145 0.931105 33.0145 0.929658C33.0145 0.928109 33.015 0.92687 33.0159 0.92594C33.017 0.92501 33.0184 0.924546 33.0201 0.924546H33.0305V0.907038C33.0305 0.905075 33.0311 0.903577 33.0322 0.902544C33.0333 0.901408 33.0349 0.90084 33.0369 0.90084C33.0387 0.90084 33.0402 0.901408 33.0414 0.902544C33.0425 0.903577 33.0431 0.905075 33.0431 0.907038V0.924546H33.0603C33.0619 0.924546 33.0632 0.92501 33.0641 0.92594C33.0652 0.92687 33.0657 0.928109 33.0657 0.929658C33.0657 0.931105 33.0652 0.932292 33.0641 0.933222C33.0632 0.934048 33.0619 0.934462 33.0603 0.934462H33.0431V0.973971C33.0431 0.979652 33.0442 0.983783 33.0465 0.986366C33.0488 0.988845 33.0524 0.990239 33.057 0.990549L33.0612 0.990859ZM33.1103 1.00108C33.1031 1.00108 33.0968 0.999484 33.0914 0.996282C33.086 0.993079 33.0818 0.988535 33.0788 0.982647C33.0759 0.976656 33.0745 0.969736 33.0745 0.961885C33.0745 0.954035 33.0759 0.947166 33.0788 0.941279C33.0818 0.935288 33.086 0.930691 33.0914 0.927489C33.0968 0.924287 33.1031 0.922686 33.1103 0.922686C33.1174 0.922686 33.1237 0.924287 33.1292 0.927489C33.1347 0.930691 33.1388 0.935288 33.1417 0.941279C33.1447 0.947166 33.1462 0.954035 33.1462 0.961885C33.1462 0.969736 33.1447 0.976656 33.1417 0.982647C33.1388 0.988535 33.1347 0.993079 33.1292 0.996282C33.1237 0.999484 33.1174 1.00108 33.1103 1.00108ZM33.1103 0.990704C33.1177 0.990704 33.1234 0.988276 33.1273 0.983422C33.1313 0.978464 33.1334 0.971285 33.1334 0.961885C33.1334 0.952692 33.1313 0.945617 33.1273 0.940659C33.1233 0.935598 33.1176 0.933067 33.1103 0.933067C33.1029 0.933067 33.0973 0.935598 33.0932 0.940659C33.0892 0.945617 33.0872 0.952692 33.0872 0.961885C33.0872 0.971182 33.0892 0.978309 33.0931 0.983267C33.0971 0.988225 33.1028 0.990704 33.1103 0.990704Z" fill="#0047CC"/>
<path d="M40.5023 10.3841C41.4457 10.3841 42.2782 10.6145 43.0004 11.076C43.7226 11.5372 44.2862 12.1923 44.6917 13.0405C45.0967 13.8887 45.2996 14.8786 45.2996 16.0093C45.2996 17.1252 45.0967 18.1151 44.6917 18.9782C44.2862 19.8413 43.7188 20.5109 42.9892 20.987C42.2596 21.4631 41.4305 21.7014 40.5023 21.7014C39.6919 21.7014 38.977 21.5267 38.3579 21.1766C37.739 20.8269 37.2672 20.3245 36.943 19.6698V20.5627C36.943 20.8901 36.8435 21.1542 36.6445 21.3552C36.4455 21.5561 36.1765 21.6566 35.8375 21.6566C35.4986 21.6566 35.2261 21.5561 35.0197 21.3552C34.8133 21.1542 34.7103 20.8901 34.7103 20.5627V6.7672C34.7103 6.43985 34.8172 6.17924 35.031 5.98573C35.2448 5.79223 35.5211 5.69568 35.8601 5.69568C36.1843 5.69568 36.4459 5.7887 36.6449 5.97474C36.8439 6.16079 36.9434 6.41003 36.9434 6.72245V12.4372C37.2676 11.7825 37.739 11.2762 38.3582 10.9194C38.977 10.5623 39.6922 10.3837 40.5027 10.3837L40.5023 10.3841ZM39.9717 19.9159C40.9295 19.9159 41.6777 19.5736 42.2157 18.8891C42.7536 18.2046 43.0226 17.2445 43.0226 16.0093C43.0226 14.7891 42.7571 13.8479 42.2269 13.1853C41.6964 12.5232 40.9446 12.1919 39.9721 12.1919C38.9992 12.1919 38.2514 12.5267 37.7282 13.1963C37.205 13.8659 36.9434 14.8185 36.9434 16.0537C36.9434 17.2889 37.205 18.2415 37.7282 18.9111C38.2514 19.5807 38.9992 19.9155 39.9721 19.9155L39.9717 19.9159ZM56.2204 18.8C56.4268 18.8 56.5963 18.882 56.7288 19.0457C56.8613 19.2094 56.9278 19.4178 56.9278 19.6706C56.9278 20.1023 56.6623 20.4669 56.1322 20.7645C55.6164 21.0624 55.0527 21.2928 54.4409 21.4564C53.8295 21.6201 53.2434 21.7021 52.6833 21.7021C50.9738 21.7021 49.6254 21.2001 48.6377 20.1953C47.65 19.1909 47.1564 17.818 47.1564 16.0769C47.1564 14.9606 47.3737 13.9711 47.8086 13.108C48.2432 12.2449 48.855 11.5753 49.6433 11.0992C50.4319 10.6231 51.3271 10.3849 52.3292 10.3849C53.7732 10.3849 54.9155 10.8535 55.7555 11.7912C56.5955 12.7288 57.0157 13.9939 57.0157 15.5862C57.0157 16.1813 56.7502 16.4792 56.22 16.4792H49.3891C49.5364 18.7859 50.6344 19.939 52.6829 19.939C53.2282 19.939 53.6997 19.8645 54.0977 19.7157C54.4957 19.5669 54.9159 19.3734 55.3579 19.1352C55.4022 19.1054 55.5238 19.0422 55.7229 18.9456C55.9219 18.8491 56.0878 18.8004 56.2204 18.8004V18.8ZM52.3739 12.0361C51.5191 12.0361 50.8338 12.3112 50.318 12.8619C49.8022 13.4126 49.4928 14.1866 49.3894 15.1835H55.0932C55.0489 14.1717 54.7947 13.3941 54.3305 12.8509C53.8664 12.3077 53.2142 12.0361 52.3742 12.0361H52.3739ZM65.2844 10.3841C67.8634 10.3841 69.1531 11.85 69.1531 14.7816V20.5855C69.1531 20.9277 69.0536 21.1919 68.8546 21.3779C68.6556 21.564 68.3792 21.657 68.0255 21.657C67.6865 21.657 67.4176 21.5604 67.2185 21.3669C67.0195 21.1734 66.92 20.9132 66.92 20.5859V14.8935C66.92 13.9707 66.7393 13.2937 66.3782 12.8619C66.0171 12.4302 65.4535 12.2147 64.687 12.2147C63.7879 12.2147 63.0657 12.4973 62.5204 13.0629C61.975 13.6285 61.7026 14.3875 61.7026 15.3397V20.5855C61.7026 20.9128 61.6031 21.1734 61.404 21.3665C61.205 21.5601 60.9361 21.6566 60.5971 21.6566C60.2582 21.6566 59.9857 21.5601 59.7793 21.3665C59.5729 21.173 59.4699 20.9128 59.4699 20.5855V11.4999C59.4699 11.1875 59.5768 10.9308 59.7906 10.7299C60.0043 10.5289 60.2733 10.4284 60.5975 10.4284C60.9217 10.4284 61.1798 10.525 61.3714 10.7189C61.563 10.9124 61.6586 11.1651 61.6586 11.478V12.3933C62.0124 11.7386 62.506 11.2401 63.14 10.8975C63.7735 10.5552 64.4883 10.3841 65.2844 10.3841ZM77.4871 19.9382C77.8113 19.9681 78.0434 20.0536 78.1837 20.1949C78.3236 20.3362 78.394 20.5337 78.394 20.7864C78.394 21.084 78.2797 21.3112 78.0511 21.467C77.8226 21.6232 77.4875 21.6864 77.0452 21.6566L76.4481 21.6119C75.2545 21.5228 74.3628 21.1542 73.7731 20.507C73.1835 19.8598 72.8888 18.9036 72.8888 17.6386V12.3929H71.5622C70.9139 12.3929 70.5897 12.1028 70.5897 11.5223C70.5897 11.2542 70.6744 11.0423 70.8439 10.8861C71.0134 10.7299 71.2528 10.6517 71.5622 10.6517H72.8888V8.3525C72.8888 8.01024 72.9884 7.74256 73.1874 7.54905C73.3864 7.35555 73.6554 7.259 73.9943 7.259C74.3332 7.259 74.6061 7.35555 74.8125 7.54905C75.0189 7.74256 75.1219 8.01024 75.1219 8.3525V10.6517H77.3103C77.6197 10.6517 77.8591 10.7299 78.029 10.8861C78.1984 11.0423 78.2832 11.2546 78.2832 11.5223C78.2832 11.8049 78.1984 12.0208 78.029 12.1695C77.8595 12.3183 77.6201 12.3929 77.3103 12.3929H75.1219V17.7952C75.1219 18.4946 75.2657 19.008 75.553 19.3354C75.8402 19.6627 76.2787 19.8488 76.8683 19.8935L77.4871 19.9382ZM84.6939 21.7017C83.6328 21.7017 82.7007 21.471 81.8977 21.0098C81.0942 20.5486 80.4754 19.89 80.0405 19.0343C79.6059 18.1787 79.3882 17.1853 79.3882 16.0541C79.3882 14.908 79.6055 13.9071 80.0405 13.0515C80.475 12.1958 81.0942 11.5372 81.8977 11.076C82.7007 10.6149 83.6332 10.3841 84.6939 10.3841C85.7551 10.3841 86.6872 10.6145 87.4906 11.076C88.2937 11.5372 88.9129 12.1958 89.3478 13.0515C89.7824 13.9071 90 14.908 90 16.0541C90 17.1853 89.7828 18.1787 89.3478 19.0343C88.9132 19.89 88.294 20.5486 87.4906 21.0098C86.6876 21.471 85.7551 21.7017 84.6939 21.7017ZM84.6939 19.9159C85.6816 19.9159 86.4369 19.5885 86.96 18.9338C87.4832 18.2792 87.7448 17.3191 87.7448 16.0541C87.7448 14.804 87.4793 13.8479 86.9492 13.1857C86.4186 12.5236 85.6669 12.1923 84.6943 12.1923C83.7218 12.1923 82.9701 12.5236 82.4395 13.1857C81.9089 13.8479 81.6438 14.804 81.6438 16.0541C81.6438 17.3191 81.9054 18.2788 82.4286 18.9338C82.9518 19.5885 83.707 19.9159 84.6943 19.9159H84.6939Z" fill="#000"/>
<path fill-rule="evenodd" clip-rule="evenodd" d="M13.5873 29.4176C6.08349 29.4176 0 23.2746 0 15.6975V14.2527H9.50984L9.48536 19.4077C9.48419 19.7217 9.73568 19.9776 10.0462 19.9788L15.7951 19.9812V29.2367C15.0764 29.3556 14.3386 29.418 13.5865 29.418L13.5873 29.4176ZM0 13.1109V1.97729H9.56776L9.51528 13.1109H0ZM10.6942 1.97729H13.1022V1.98711C13.2635 1.98122 13.4252 1.97729 13.5873 1.97729C21.091 1.97729 27.1745 8.12028 27.1745 15.6975C27.1745 16.7784 27.0502 17.8299 26.8162 18.839H10.6149L10.6942 1.97729ZM26.4982 19.9808C25.0573 24.4121 21.442 27.8472 16.9266 28.9996V19.9808H26.4982Z" fill="#0047CC"/>
</svg>
