<svg width="148" height="30" viewBox="0 0 148 30" fill="none" xmlns="http://www.w3.org/2000/svg">
<path d="M55.9627 23.3272C54.5047 23.6636 52.9907 23.8318 51.4206 23.8318C45.1402 23.8318 42 20.7758 42 14.6636C42 9.00001 45.1402 6.16822 51.4206 6.16822C52.9907 6.16822 54.5047 6.33645 55.9627 6.6729V10.2056C54.5047 9.86917 53.1028 9.70095 51.757 9.70095C48.2243 9.70095 46.458 11.3552 46.458 14.6636C46.458 18.4206 48.2243 20.2991 51.757 20.2991C53.1028 20.2991 54.5047 20.1309 55.9627 19.7944V23.3272Z" fill="white"/>
<path d="M58.0655 18.3309C58.0655 14.8206 60.6225 13.0654 65.7365 13.0654C66.9365 13.0654 68.1365 13.1776 69.3365 13.4019V12.0729C69.3365 10.4916 68.1982 9.70095 65.9216 9.70095C63.9926 9.70095 61.8505 9.98132 59.4954 10.5421V7.00935C61.8505 6.4486 63.9926 6.16822 65.9216 6.16822C71.1702 6.16822 73.7945 8.10842 73.7945 11.9888V23.8318H71.2038L69.6225 22.2505C68.0861 23.3047 66.3926 23.8318 64.5421 23.8318C60.2244 23.8318 58.0655 21.9982 58.0655 18.3309ZM69.3365 16.4299C68.215 16.2056 67.015 16.0935 65.7365 16.0935C63.5945 16.0935 62.5234 16.8225 62.5234 18.2804C62.5234 19.8505 63.4206 20.6356 65.215 20.6356C66.6954 20.6356 68.0693 20.1758 69.3365 19.2561V16.4299Z" fill="white"/>
<path d="M78.017 22.9907V19.2898C79.9796 20.0748 82.245 20.4673 84.8132 20.4673C86.731 20.4673 87.6899 19.8505 87.6899 18.6169C87.6899 17.4393 87.045 16.8505 85.7553 16.8505H82.559C78.9702 16.8505 77.1758 15.0841 77.1758 11.5514C77.1758 7.85047 79.7945 6 85.0319 6C87.2525 6 89.3441 6.33645 91.3067 7.00935V10.7103C89.3441 9.92525 87.2132 9.53272 84.9142 9.53272C82.503 9.53272 81.2973 10.1495 81.2973 11.3832C81.2973 12.5608 81.9983 13.1496 83.4002 13.1496H86.26C90.1852 13.1496 92.1478 14.9159 92.1478 18.4486C92.1478 22.1496 89.6469 24.0001 84.645 24.0001C82.1889 24.0001 79.9796 23.6636 78.017 22.9907Z" fill="white"/>
<path d="M94.4357 18.3309C94.4357 14.8206 96.9927 13.0654 102.107 13.0654C103.307 13.0654 104.507 13.1776 105.707 13.4019V12.0729C105.707 10.4916 104.568 9.70095 102.292 9.70095C100.363 9.70095 98.2208 9.98132 95.8656 10.5421V7.00935C98.2208 6.4486 100.363 6.16822 102.292 6.16822C107.54 6.16822 110.165 8.10842 110.165 11.9888V23.8318H107.574L105.993 22.2505C104.456 23.3047 102.763 23.8318 100.912 23.8318C96.5946 23.8318 94.4357 21.9982 94.4357 18.3309ZM105.707 16.4299C104.585 16.2056 103.385 16.0935 102.107 16.0935C99.9647 16.0935 98.8937 16.8225 98.8937 18.2804C98.8937 19.8505 99.7909 20.6356 101.585 20.6356C103.066 20.6356 104.439 20.1758 105.707 19.2561V16.4299Z" fill="white"/>
<path d="M112.284 6.16822H116.995L121.284 18.5159L125.742 6.16822H130.453L123.269 23.8318H119.03L112.284 6.16822Z" fill="white"/>
<path d="M131.714 18.3309C131.714 14.8206 134.271 13.0654 139.385 13.0654C140.585 13.0654 141.785 13.1776 142.985 13.4019V12.0729C142.985 10.4916 141.847 9.70095 139.57 9.70095C137.641 9.70095 135.499 9.98132 133.144 10.5421V7.00935C135.499 6.4486 137.641 6.16822 139.57 6.16822C144.819 6.16822 147.443 8.10842 147.443 11.9888V23.8318H144.853L143.271 22.2505C141.735 23.3047 140.041 23.8318 138.191 23.8318C133.873 23.8318 131.714 21.9982 131.714 18.3309ZM142.985 16.4299C141.864 16.2056 140.664 16.0935 139.385 16.0935C137.243 16.0935 136.172 16.8225 136.172 18.2804C136.172 19.8505 137.07 20.6356 138.864 20.6356C140.344 20.6356 141.718 20.1758 142.985 19.2561V16.4299Z" fill="white"/>
<path fill-rule="evenodd" clip-rule="evenodd" d="M7.24516 0.642335C8.75457 1.49878 9.66022 3.11092 9.66022 4.82381C9.66022 7.49391 7.49673 9.66022 4.83011 9.66022C2.16349 9.66022 0 7.49391 0 4.82381C0 3.11092 0.905647 1.49878 2.41506 0.642335C3.92446 -0.214112 5.73575 -0.214112 7.24516 0.642335ZM30 4.71901C30 18.6236 18.6236 30 4.71901 30C4.71901 15.9691 16.0955 4.71901 30 4.71901Z" fill="#FB0E7D"/>
</svg>
