<svg xmlns="http://www.w3.org/2000/svg" xmlns:xlink="http://www.w3.org/1999/xlink" width="213" height="52" viewBox="0 0 213 52">
  <defs>
    <polygon id="logo-a" points=".241 .15 14.469 .15 14.469 17.333 .241 17.333"/>
    <polygon id="logo-c" points="0 0 20.938 0 20.938 26 0 26"/>
    <polygon id="logo-e" points="0 0 20.938 0 20.938 26 0 26"/>
    <polygon id="logo-g" points=".938 0 21.827 0 21.827 26 .938 26"/>
  </defs>
  <g fill="none" fill-rule="evenodd">
    <path fill="#412217" d="M73.1595 24.6965L64.7845 24.6965 64.7845 21.2105 71.8135 21.2105C72.1125 21.2105 72.3115 21.1605 72.4115 21.0105 72.5115 20.9115 72.5615 20.7125 72.5615 20.4635L72.5615 18.4215C72.5615 18.2215 72.5115 18.0235 72.4115 17.8735 72.3115 17.7235 72.1125 17.6745 71.8135 17.6745L64.7845 17.6745 64.7845 14.8355 72.7105 14.8355C73.0105 14.8355 73.2095 14.7355 73.3085 14.6355 73.4085 14.4865 73.4585 14.2865 73.4585 14.0875L73.4585 11.8955C73.4585 11.6465 73.4085 11.4975 73.3085 11.3485 73.2095 11.1985 73.0105 11.1495 72.7105 11.1495L61.4445 11.1495C61.1455 11.1495 60.9455 11.1985 60.8465 11.3485 60.6965 11.4975 60.6465 11.6465 60.6465 11.8955L60.6465 27.5855C60.6465 27.8355 60.6965 28.0335 60.8465 28.1335 60.9455 28.2825 61.1455 28.3325 61.4445 28.3325L73.1595 28.3325C73.4585 28.3325 73.6585 28.2825 73.7585 28.1335 73.8585 28.0335 73.9085 27.8355 73.9085 27.5855L73.9085 25.4445C73.9085 25.1955 73.8585 25.0455 73.7585 24.8965 73.6585 24.7465 73.4585 24.6965 73.1595 24.6965M89.3124 19.5168L93.9984 11.8958C94.0984 11.6968 94.0984 11.5468 94.0484 11.3988 93.9984 11.2488 93.8484 11.1498 93.5994 11.1498L90.5584 11.1498C90.3094 11.1498 90.1104 11.1988 89.9604 11.2988 89.8114 11.4478 89.6614 11.6468 89.4624 11.8958L86.8694 16.1298 84.2774 11.8958C84.1274 11.6468 83.9784 11.4478 83.8284 11.2988 83.6794 11.1988 83.4794 11.1498 83.2304 11.1498L80.1394 11.1498C79.8904 11.1498 79.7904 11.2488 79.6904 11.3988 79.6404 11.5468 79.6404 11.6968 79.7404 11.8958L84.4764 19.5168 79.8394 27.5358C79.7404 27.6858 79.6904 27.8848 79.7404 28.0338 79.7904 28.2328 79.9394 28.3328 80.1394 28.3328L83.1304 28.3328C83.3794 28.3828 83.6284 28.3328 83.7784 28.2328 83.9284 28.1338 84.1274 27.9348 84.2774 27.6358L86.8694 22.9538 89.4624 27.6358C89.6614 27.9348 89.8114 28.1338 89.9604 28.2328 90.1604 28.3328 90.3594 28.3828 90.6084 28.3328L93.5994 28.3328C93.7994 28.3328 93.9484 28.2328 93.9984 28.0338 94.0484 27.8848 94.0484 27.6858 93.9484 27.5358L89.3124 19.5168zM106.8607 19.716L104.3687 19.716 104.3687 14.836 106.8607 14.836C107.9067 14.836 108.6547 15.084 109.1037 15.532 109.6027 16.03 109.8017 16.578 109.8017 17.275 109.8017 17.973 109.6027 18.521 109.1037 18.969 108.6547 19.467 107.9067 19.716 106.8607 19.716M106.9107 11.15L101.0277 11.15C100.7287 11.15 100.5287 11.199 100.4297 11.349 100.2797 11.498 100.2297 11.647 100.2797 11.896L100.2797 27.586C100.2797 27.885 100.3297 28.084 100.4787 28.183 100.5787 28.283 100.7777 28.333 101.0277 28.333L103.6207 28.333C103.8197 28.333 104.0197 28.283 104.1687 28.183 104.3187 28.084 104.3687 27.885 104.3687 27.586L104.3687 23.253 106.8607 23.253C109.1037 23.203 110.8487 22.654 111.9957 21.608 113.1427 20.513 113.7397 19.069 113.7397 17.225 113.7397 15.383 113.1927 13.888 112.0457 12.842 110.8487 11.747 109.1527 11.15 106.9107 11.15M131.4882 24.6965L123.9602 24.6965 123.9602 11.8955C123.9602 11.5965 123.8602 11.3985 123.7602 11.2985 123.6112 11.1985 123.4122 11.1495 123.1632 11.1495L120.5702 11.1495C120.3712 11.1495 120.1722 11.1985 120.0222 11.2985 119.9222 11.3985 119.8232 11.5965 119.8232 11.8955L119.8232 27.5855C119.8232 27.8355 119.8732 28.0335 119.9722 28.1335 120.0722 28.2825 120.3212 28.3325 120.5702 28.3325L131.4882 28.3325C131.7872 28.3325 131.9862 28.2825 132.0862 28.1335 132.1852 28.0335 132.2362 27.8355 132.2362 27.5855L132.2362 25.4445C132.2362 25.1955 132.1852 25.0455 132.0862 24.8965 131.9862 24.7465 131.7872 24.6965 131.4882 24.6965M147.5917 22.4553C147.5917 23.3023 147.3417 23.9493 146.7937 24.3983 146.2457 24.8463 145.5477 25.0953 144.6977 25.0953 143.8007 25.0953 143.1037 24.8463 142.6047 24.3983 142.0567 23.9493 141.8067 23.3023 141.7567 22.4553L141.7567 17.0273C141.8067 16.1793 142.0567 15.5323 142.6047 15.0833 143.1037 14.6353 143.8007 14.3863 144.6977 14.3863 145.5477 14.3863 146.2457 14.6353 146.7937 15.0833 147.3417 15.5323 147.5917 16.1793 147.5917 17.0273L147.5917 22.4553zM151.7287 16.6783C151.6787 15.2833 151.3287 14.1373 150.5827 13.2913 149.8347 12.3943 148.9367 11.7963 147.8907 11.3493 146.7937 10.9503 145.7467 10.7503 144.6977 10.7503 143.6017 10.7503 142.5547 10.9503 141.4587 11.3493 140.4117 11.7963 139.5137 12.3943 138.8167 13.2913 138.0687 14.1373 137.7197 15.2833 137.6697 16.6783L137.6697 22.8043C137.7197 24.1993 138.0687 25.3443 138.8167 26.1913 139.5137 27.0873 140.4117 27.7353 141.4587 28.1333 142.5547 28.5323 143.6017 28.7313 144.6977 28.7313 145.7467 28.7313 146.7937 28.5323 147.8907 28.1333 148.9367 27.7353 149.8347 27.0873 150.5827 26.1913 151.3287 25.3443 151.6787 24.1993 151.7287 22.8043L151.7287 16.6783zM172.2675 27.4866L168.5795 22.1566C169.4255 21.8586 170.2735 21.2606 171.0215 20.3626 171.7695 19.4666 172.1675 18.3216 172.2175 16.9266 172.2175 16.0796 172.0685 15.3326 171.8185 14.6356 171.5695 13.8886 171.1705 13.3406 170.7215 12.8416 170.1735 12.2946 169.5255 11.8956 168.7775 11.5966 167.9805 11.2986 166.8845 11.1496 165.4885 11.1496L158.9075 11.1496C158.6075 11.1496 158.4085 11.2486 158.3085 11.3486 158.2085 11.4976 158.1595 11.6966 158.1595 11.9456L158.1595 27.5856C158.1595 27.8846 158.2585 28.0836 158.3585 28.1836 158.5075 28.2826 158.6575 28.3326 158.9075 28.3326L161.4995 28.3326C161.7495 28.3326 161.8995 28.2826 162.0485 28.1836 162.1985 28.0836 162.2475 27.8846 162.2475 27.5856L162.2475 14.8356 165.7375 14.8356C166.4355 14.8356 166.9835 15.0336 167.4325 15.4326 167.8805 15.8316 168.1295 16.3796 168.1295 17.0276 168.1295 17.6736 167.8805 18.1716 167.3825 18.5706 166.8845 18.9696 166.3345 19.1686 165.6375 19.1686L165.1385 19.1686C164.8395 19.1686 164.6405 19.2186 164.5405 19.3676 164.4415 19.5166 164.3915 19.6666 164.3915 19.9156L164.3915 22.0076C164.3915 22.3566 164.3915 22.6546 164.4415 22.8536 164.4915 23.0536 164.5405 23.2026 164.6405 23.3526L167.4825 27.5856C167.6815 27.8356 167.8305 28.0336 168.0315 28.1836 168.2295 28.2826 168.4795 28.3326 168.7775 28.3326L171.8685 28.3326C172.1185 28.3326 172.2675 28.2336 172.3675 28.0836 172.4165 27.8846 172.4165 27.6856 172.2675 27.4866M191.2128 24.6965L182.8368 24.6965 182.8368 21.2105 189.8658 21.2105C190.1658 21.2105 190.3658 21.1605 190.4648 21.0105 190.5648 20.9115 190.6138 20.7125 190.6138 20.4635L190.6138 18.4215C190.6138 18.2215 190.5648 18.0235 190.4648 17.8735 190.3658 17.7235 190.1658 17.6745 189.8658 17.6745L182.8368 17.6745 182.8368 14.8355 190.7648 14.8355C191.0638 14.8355 191.2628 14.7355 191.3618 14.6355 191.4628 14.4865 191.5128 14.2865 191.5128 14.0875L191.5128 11.8955C191.5128 11.6465 191.4628 11.4975 191.3618 11.3485 191.2628 11.1985 191.0638 11.1495 190.7648 11.1495L179.4968 11.1495C179.1978 11.1495 178.9978 11.1985 178.8998 11.3485 178.7498 11.4975 178.6988 11.6465 178.6988 11.8955L178.6988 27.5855C178.6988 27.8355 178.7498 28.0335 178.8998 28.1335 178.9978 28.2825 179.1978 28.3325 179.4968 28.3325L191.2128 28.3325C191.5128 28.3325 191.7108 28.2825 191.8108 28.1335 191.9108 28.0335 191.9608 27.8355 191.9608 27.5855L191.9608 25.4445C191.9608 25.1955 191.9108 25.0455 191.8108 24.8965 191.7108 24.7465 191.5128 24.6965 191.2128 24.6965"/>
    <g transform="translate(198 11)">
      <mask id="logo-b" fill="#fff">
        <use xlink:href="#logo-a"/>
      </mask>
      <path fill="#412217" d="M14.3495,16.4866 L10.6615,11.1566 C11.5085,10.8586 12.3555,10.2606 13.1035,9.3626 C13.8515,8.4666 14.2495,7.3216 14.2995,5.9266 C14.2995,5.0796 14.1505,4.3326 13.9015,3.6356 C13.6515,2.8886 13.2535,2.3406 12.8045,1.8416 C12.2565,1.2946 11.6085,0.8956 10.8605,0.5966 C10.0625,0.2986 8.9665,0.1496 7.5705,0.1496 L0.9895,0.1496 C0.6905,0.1496 0.4905,0.2486 0.3905,0.3486 C0.2905,0.4976 0.2415,0.6966 0.2415,0.9456 L0.2415,16.5856 C0.2415,16.8846 0.2905,17.0836 0.4405,17.1836 C0.5395,17.2826 0.7405,17.3326 0.9895,17.3326 L3.5805,17.3326 C3.8305,17.3326 3.9795,17.2826 4.1295,17.1836 C4.2795,17.0836 4.3285,16.8846 4.3285,16.5856 L4.3285,3.8356 L7.8205,3.8356 C8.5175,3.8356 9.0665,4.0336 9.5145,4.4326 C9.9625,4.8316 10.2125,5.3796 10.2125,6.0276 C10.2125,6.6736 9.9625,7.1716 9.4645,7.5706 C8.9665,7.9696 8.4175,8.1686 7.7195,8.1686 L7.2215,8.1686 C6.9215,8.1686 6.7235,8.2186 6.6235,8.3676 C6.4735,8.5166 6.4235,8.6666 6.4735,8.9156 L6.4735,11.0076 C6.4235,11.3566 6.4735,11.6546 6.5235,11.8536 C6.5235,12.0536 6.6235,12.2026 6.7235,12.3526 L9.5645,16.5856 C9.7645,16.8356 9.9125,17.0336 10.1135,17.1836 C10.3125,17.2826 10.5615,17.3326 10.8605,17.3326 L13.9515,17.3326 C14.2005,17.3326 14.3495,17.2336 14.4495,17.0836 C14.4995,16.8846 14.4495,16.6856 14.3495,16.4866" mask="url(#logo-b)"/>
    </g>
    <path fill="#CF2F2F" d="M66.0306 37.091L67.5756 40.478 64.4856 40.478 66.0306 37.091zM69.2216 44.264L71.4146 44.264 66.5286 34.103 65.5316 34.103 60.6466 44.264 62.8396 44.264 63.7376 42.173 68.2736 42.173 69.2216 44.264zM78.1454 41.5744C77.9454 41.8734 77.6964 42.1224 77.3474 42.3214 77.0484 42.4704 76.7494 42.5704 76.3504 42.5704 75.7024 42.5704 75.1534 42.3214 74.7544 41.9234 74.3054 41.4744 74.0564 40.9764 74.0564 40.3284 74.0564 39.6814 74.3054 39.1824 74.7544 38.7354 75.1534 38.3364 75.7024 38.0874 76.3504 38.0874 76.7494 38.0874 77.0484 38.1864 77.3474 38.3364 77.6964 38.4864 77.9454 38.7354 78.1454 39.0344L79.4404 37.8394C79.0424 37.3404 78.6434 36.9914 78.0954 36.6934 77.5964 36.4444 76.9984 36.2944 76.3504 36.2944 75.1534 36.2944 74.1564 36.6934 73.3584 37.4404 72.5114 38.2364 72.1124 39.1824 72.0624 40.3284 72.1124 41.4744 72.5114 42.4204 73.3584 43.1684 74.1564 43.9654 75.1534 44.3144 76.3504 44.3644 76.9984 44.3644 77.5474 44.2144 78.0954 43.9654 78.5934 43.6654 79.0424 43.2674 79.3914 42.7694L78.1454 41.5744zM86.6195 41.9231C86.3705 42.1221 86.1215 42.2711 85.7725 42.3711 85.4235 42.5201 85.0755 42.5701 84.7255 42.5701 83.9775 42.5201 83.4295 42.3211 83.0305 41.8731 82.5815 41.4241 82.3825 40.9271 82.3825 40.3291 82.3825 39.7311 82.5815 39.1831 83.0305 38.7851 83.4295 38.3371 83.9775 38.0881 84.7255 38.0881 85.0755 38.0881 85.4235 38.1371 85.7725 38.2871 86.1215 38.3861 86.3705 38.5361 86.6195 38.7351L86.6195 41.9231zM86.6195 36.4441L86.6195 36.8931C86.3215 36.6931 85.9225 36.5441 85.5735 36.4441 85.1745 36.3441 84.7755 36.2451 84.3275 36.2451 83.1295 36.2941 82.1325 36.6931 81.4845 37.4901 80.7865 38.2871 80.4375 39.2331 80.4375 40.3291 80.4375 41.3751 80.7865 42.3211 81.4845 43.1191 82.1325 43.9151 83.1295 44.3141 84.3275 44.3641 84.7755 44.3641 85.1745 44.3141 85.5735 44.1641 85.9725 44.0651 86.3215 43.9151 86.6195 43.6661L86.6195 44.2641 88.6635 44.2641 88.6635 36.4441 86.6195 36.4441zM94.3973 42.5701C93.7493 42.5701 93.1503 42.3711 92.7513 41.9231 92.3033 41.5241 92.1043 41.0271 92.0543 40.3291 92.1043 39.6821 92.3033 39.1331 92.7513 38.7361 93.1503 38.2871 93.7493 38.0881 94.3973 38.0881 94.7953 38.0881 95.1453 38.1371 95.4933 38.2371 95.7933 38.3861 96.0913 38.5361 96.3413 38.7361L96.3413 41.8731C96.0913 42.0721 95.7933 42.2711 95.4933 42.3711 95.1453 42.5201 94.7953 42.5701 94.3973 42.5701L94.3973 42.5701zM96.3413 33.4061L96.3413 36.8931C95.9923 36.6931 95.6433 36.5441 95.2443 36.4441 94.8953 36.3441 94.4963 36.2941 94.0483 36.2941 92.9513 36.2941 92.0043 36.6431 91.2563 37.3901 90.5083 38.0881 90.1093 39.0841 90.1093 40.3291 90.1093 41.5741 90.5083 42.5201 91.2563 43.2681 92.0043 43.9651 92.9513 44.3641 94.0483 44.3641 94.4463 44.3641 94.8953 44.3141 95.2443 44.2141 95.6433 44.1151 95.9923 43.9651 96.3413 43.7661L96.3413 44.2641 98.3353 44.2641 98.3353 33.4061 96.3413 33.4061zM103.8202 37.8879C104.4672 37.8879 104.9162 38.0879 105.2162 38.4369 105.5152 38.7359 105.6642 39.1829 105.7142 39.6319L101.8262 39.6319C101.9262 39.1329 102.1252 38.7359 102.4742 38.3869 102.8232 38.0379 103.2712 37.8879 103.8202 37.8879L103.8202 37.8879zM107.6082 40.9269L107.6082 40.6779 107.6082 40.4779C107.6082 39.2329 107.2592 38.2369 106.6122 37.4399 105.9632 36.6929 105.0162 36.2939 103.8202 36.2939 102.6242 36.2939 101.6272 36.6929 100.9262 37.4399 100.1792 38.2369 99.8312 39.1829 99.7802 40.3289 99.8312 41.4739 100.1792 42.4209 100.9262 43.1689 101.6272 43.9649 102.6242 44.3139 103.8202 44.3639 104.5672 44.3639 105.2652 44.2139 105.8632 43.9149 106.4622 43.6159 106.9612 43.2679 107.3592 42.7699L106.0632 41.6739C105.8142 41.9729 105.5652 42.2209 105.1662 42.3709 104.8172 42.5699 104.4672 42.6699 104.0192 42.6699 103.4212 42.6199 102.9222 42.4709 102.5242 42.1729 102.1742 41.8239 101.9262 41.4249 101.7742 40.9269L107.6082 40.9269zM118.1278 36.2942C117.6798 36.2942 117.2308 36.3942 116.8318 36.5442 116.3808 36.7432 116.0318 36.9412 115.6848 37.2912 115.4348 36.9412 115.0858 36.6932 114.6368 36.4942 114.2378 36.3442 113.6908 36.2942 113.0918 36.2942 112.6918 36.2942 112.3438 36.3442 111.9948 36.4442 111.6458 36.5442 111.3478 36.6932 111.0478 36.8932L111.0478 36.4442 109.0538 36.4442 109.0538 44.2642 111.0478 44.2642 111.0478 38.6862C111.2468 38.4862 111.4958 38.3362 111.7958 38.2362 112.0948 38.1372 112.3938 38.0872 112.7418 38.0872 113.2908 38.0872 113.6398 38.2362 113.9388 38.5362 114.1888 38.8352 114.3378 39.2832 114.3378 39.8812L114.3378 44.2642 116.3328 44.2642 116.3328 39.9312 116.3328 39.1332C116.2818 38.9352 116.2818 38.7852 116.2318 38.6862 116.4328 38.4862 116.6808 38.3362 116.9318 38.2362 117.1808 38.1372 117.4798 38.0872 117.7788 38.0872 118.3268 38.0872 118.7748 38.2362 119.0748 38.5362 119.3738 38.8352 119.5238 39.2832 119.5238 39.8812L119.5238 44.2642 121.5178 44.2642 121.5178 39.8812C121.5178 38.6352 121.2178 37.6902 120.6698 37.1412 120.1218 36.5442 119.2738 36.2942 118.1278 36.2942M128.8456 36.4441L126.8516 41.7231 126.7006 41.7231 124.6586 36.4441 122.5146 36.4441 125.6046 44.2641 125.7546 44.2641C125.5546 44.7121 125.2066 45.0111 124.7566 45.1601 124.3086 45.3601 123.8106 45.4601 123.2626 45.4091L123.0626 45.4091 122.8136 46.9531 123.5116 46.9531C124.3586 46.9531 125.2066 46.8041 125.9536 46.4561 126.7506 46.1561 127.3496 45.5591 127.6996 44.6621L130.9386 36.4441 128.8456 36.4441z"/>
    <mask id="logo-d" fill="#fff">
      <use xlink:href="#logo-c"/>
    </mask>
    <path fill="#CF2F2F" d="M7.4779,0.0002 C6.1809,0.0002 4.9349,0.0002 3.7389,0.0492 C2.5419,0.1492 1.2959,0.2982 -0.0001,0.5482 L8.7239,26.0002 L20.9379,26.0002 C20.6389,25.0032 16.2519,8.9652 13.9079,0.5482 C13.1609,0.3982 12.0639,0.2982 10.7179,0.1492 C9.3719,0.0492 8.3259,0.0002 7.4779,0.0002" mask="url(#logo-d)"/>
    <g transform="translate(0 26)">
      <mask id="logo-f" fill="#fff">
        <use xlink:href="#logo-e"/>
      </mask>
      <path fill="#3BADAA" d="M7.4779,26.0002 C6.1809,26.0002 4.9349,26.0002 3.7389,25.9002 C2.5419,25.8512 1.2959,25.6512 -0.0001,25.4012 L8.7239,0.0002 L20.9379,0.0002 C20.6389,0.9962 16.2519,16.9842 13.9079,25.4012 C13.1609,25.5512 12.0639,25.7012 10.7179,25.8012 C9.3719,25.9502 8.3259,26.0002 7.4779,26.0002" mask="url(#logo-f)"/>
    </g>
    <g transform="translate(20 26)">
      <mask id="logo-h" fill="#fff">
        <use xlink:href="#logo-g"/>
      </mask>
      <path fill="#863D63" d="M14.3978,26.0002 C15.6438,26.0002 16.8908,26.0002 18.1368,25.9002 C19.3338,25.8512 20.5818,25.6512 21.8268,25.4012 L13.1028,0.0002 L0.9378,0.0002 C1.1868,0.9962 5.6238,16.9842 7.9188,25.4012 C8.7158,25.5512 9.8128,25.7012 11.1078,25.8012 C12.4538,25.9502 13.5508,26.0002 14.3978,26.0002" mask="url(#logo-h)"/>
    </g>
    <path fill="#E1C165" d="M34.3978,0.0002 C35.6438,0.0002 36.8908,0.0002 38.1368,0.0492 C39.3338,0.1492 40.5818,0.2982 41.8268,0.5482 L33.1028,26.0002 L20.9378,26.0002 C21.1868,25.0032 25.6238,8.9652 27.9188,0.5482 C28.7158,0.3982 29.8128,0.2982 31.1078,0.1492 C32.4538,0.0492 33.5508,0.0002 34.3978,0.0002"/>
  </g>
</svg>
