<svg width="92" height="40" viewBox="0 0 92 40" fill="none" xmlns="http://www.w3.org/2000/svg">
<path d="M44.2332 26.232C44.038 26.139 43.8678 26.0007 43.7366 25.8286C43.6053 25.6565 43.5168 25.4555 43.4785 25.2423C43.4401 25.0291 43.4529 24.8098 43.5159 24.6025C43.5789 24.3952 43.6902 24.206 43.8406 24.0505C43.991 23.8949 44.1762 23.7776 44.3808 23.7081C44.5855 23.6386 44.8037 23.619 45.0174 23.651C45.2311 23.6829 45.4341 23.7654 45.6097 23.8917C45.7852 24.018 45.9283 24.1844 46.0269 24.3771C46.1153 24.5452 46.2483 24.6856 46.4112 24.7827C46.5741 24.8798 46.7606 24.9298 46.9501 24.9273H48.7669C48.8762 24.9273 48.9841 24.9028 49.0828 24.8555C49.1814 24.8083 49.2683 24.7395 49.3369 24.6542C49.4056 24.5689 49.4544 24.4692 49.4797 24.3626C49.505 24.2559 49.5061 24.1449 49.4831 24.0378C49.3093 23.1876 48.908 22.4009 48.3222 21.762C47.7365 21.1232 46.9884 20.6563 46.1581 20.4115C45.3279 20.1666 44.4468 20.1531 43.6095 20.3722C42.7721 20.5914 42.0101 21.035 41.405 21.6555C40.8 22.276 40.3748 23.0499 40.175 23.8943C39.9752 24.7388 40.0085 25.6218 40.2711 26.4487C40.5338 27.2757 41.0159 28.0153 41.6659 28.5883C42.3158 29.1613 43.1091 29.546 43.9605 29.7013C44.0658 29.7191 44.1737 29.7135 44.2767 29.6851C44.3797 29.6566 44.4752 29.6059 44.5565 29.5366C44.6379 29.4672 44.7032 29.3808 44.7478 29.2835C44.7924 29.1862 44.8152 29.0803 44.8147 28.9732V27.1743C44.8156 26.9783 44.7616 26.7861 44.6588 26.6194C44.556 26.4528 44.4085 26.3185 44.2332 26.232Z" fill="#3A424D"/>
<path d="M38.7665 25.8991C38.9325 27.024 39.4064 28.0806 40.1354 28.9516C40.8644 29.8225 41.82 30.4736 42.896 30.8325C43.9719 31.1914 45.126 31.244 46.23 30.9845C47.3339 30.725 48.3445 30.1635 49.1493 29.3625C49.9541 28.5614 50.5216 27.5522 50.7887 26.4471C51.0558 25.342 51.012 24.1842 50.6622 23.1025C50.3125 22.0209 49.6704 21.0577 48.8075 20.3201C47.9445 19.5824 46.8944 19.0993 45.7741 18.9243C45.5265 18.8865 45.3006 18.7611 45.1373 18.5707C44.974 18.3803 44.884 18.1376 44.8837 17.8865V16.5686C44.8838 16.4182 44.9159 16.2696 44.978 16.1327C45.04 15.9958 45.1306 15.8738 45.2435 15.7748C45.3565 15.6759 45.4892 15.6024 45.6329 15.5591C45.7765 15.5159 45.9277 15.504 46.0763 15.5242C47.8408 15.7587 49.5045 16.4842 50.8789 17.6185C52.2533 18.7527 53.2833 20.2504 53.8523 21.9418C54.4212 23.6331 54.5064 25.4505 54.098 27.1879C53.6897 28.9253 52.8042 30.5132 51.5419 31.7717C50.2796 33.0302 48.691 33.9089 46.9562 34.3083C45.2214 34.7076 43.4097 34.6116 41.7266 34.0312C40.0434 33.4507 38.556 32.409 37.433 31.0241C36.31 29.6392 35.5963 27.9665 35.3728 26.1956C35.3519 26.0476 35.3625 25.8967 35.4039 25.7531C35.4454 25.6095 35.5168 25.4763 35.6133 25.3623C35.7099 25.2484 35.8294 25.1562 35.9641 25.092C36.0987 25.0278 36.2455 24.993 36.3945 24.9898H37.7087C37.9653 24.9857 38.2145 25.076 38.4094 25.2435C38.6042 25.411 38.7313 25.6442 38.7665 25.8991Z" fill="#3A424D"/>
<path d="M43.8521 35.8821C41.7906 35.6957 39.8246 34.9244 38.1842 33.6585C36.5439 32.3925 35.297 30.6842 34.5894 28.7334C33.8819 26.7827 33.7429 24.6702 34.1889 22.6432C34.6349 20.6162 35.6473 18.7584 37.1076 17.2874C38.568 15.8163 40.416 14.7928 42.4352 14.3366C44.4545 13.8804 46.5616 14.0103 48.5099 14.7112C50.4582 15.4121 52.1672 16.655 53.4368 18.2944C54.7064 19.9338 55.4842 21.902 55.6792 23.9685C55.7022 24.2304 55.8222 24.4742 56.0156 24.6516C56.209 24.8291 56.4617 24.9275 56.7239 24.9273H58.038C58.1834 24.9298 58.3277 24.9015 58.4615 24.8443C58.5952 24.7871 58.7155 24.7022 58.8144 24.5953C58.9133 24.4884 58.9886 24.3617 59.0354 24.2236C59.0822 24.0856 59.0994 23.9391 59.086 23.7939C58.8567 21.0672 57.8542 18.4632 56.1971 16.2893C54.5399 14.1153 52.2971 12.4622 49.7335 11.525C47.1699 10.5879 44.3925 10.4058 41.729 11.0002C39.0656 11.5947 36.6273 12.9409 34.702 14.8799C32.7767 16.819 31.4447 19.2699 30.8633 21.9435C30.2819 24.617 30.4753 27.4016 31.4207 29.9685C32.3661 32.5354 34.0241 34.7775 36.1989 36.4301C38.3736 38.0828 40.9745 39.0769 43.6944 39.2953C43.8389 39.3078 43.9843 39.2897 44.1213 39.2424C44.2584 39.195 44.3841 39.1194 44.4902 39.0204C44.5964 38.9214 44.6807 38.8012 44.7377 38.6675C44.7947 38.5339 44.8232 38.3897 44.8213 38.2443V36.9265C44.8204 36.662 44.7201 36.4077 44.5405 36.2141C44.3608 36.0205 44.115 35.9019 43.8521 35.8821Z" fill="#3A424D"/>
<path d="M0 38.0763V1.87123C0.000867226 1.53683 0.133713 1.21638 0.369496 0.979925C0.60528 0.743469 0.924821 0.610245 1.25827 0.609375L7.42805 0.609375C7.76207 0.609374 8.08245 0.742214 8.31895 0.978764C8.55544 1.21531 8.68874 1.53626 8.68961 1.87123V21.3098L17.1065 10.4934C17.2235 10.3428 17.3729 10.2207 17.5436 10.1363C17.7143 10.0518 17.9018 10.0072 18.0921 10.0058H25.9341C26.1748 10.003 26.4112 10.0694 26.6155 10.1971C26.8198 10.3247 26.9834 10.5083 27.087 10.7262C27.1906 10.9441 27.23 11.1871 27.2003 11.4267C27.1707 11.6662 27.0733 11.8922 26.9197 12.0781L16.594 24.5352L26.9394 37.2757C27.09 37.4617 27.1848 37.6868 27.2128 37.9248C27.2408 38.1627 27.2008 38.4037 27.0976 38.6198C26.9943 38.8359 26.832 39.0181 26.6296 39.1452C26.4271 39.2724 26.1927 39.3393 25.9538 39.3382H18.1217C17.9244 39.3391 17.7296 39.2933 17.5532 39.2046C17.3768 39.1158 17.2238 38.9867 17.1065 38.8275L8.68961 27.3258V38.0763C8.68874 38.4113 8.55544 38.7322 8.31895 38.9688C8.08245 39.2053 7.76207 39.3382 7.42805 39.3382H1.25827C0.924821 39.3373 0.60528 39.2041 0.369496 38.9676C0.133713 38.7312 0.000867226 38.4107 0 38.0763H0Z" fill="#3A424D"/>
<path fill-rule="evenodd" clip-rule="evenodd" d="M91.1111 11.0601V38.1884C91.1111 38.5239 90.9782 38.8457 90.7416 39.083C90.505 39.3203 90.1842 39.4536 89.8496 39.4536H84.0149C83.8494 39.4536 83.6855 39.4208 83.5326 39.3572C83.3797 39.2936 83.2409 39.2003 83.124 39.0828C83.0071 38.9653 82.9145 38.8258 82.8515 38.6723C82.7884 38.5188 82.7562 38.3544 82.7566 38.1884V35.1474C81.7019 36.4374 80.379 37.4807 78.8803 38.2046C77.3817 38.9285 75.7434 39.3154 74.0802 39.3382C68.4952 39.3382 61.1164 35.3418 61.1164 23.9752C61.1164 12.6086 70.036 9.61377 74.0802 9.61377C77.7301 9.61377 81.9057 11.9596 82.7566 13.7716V11.0601C82.7562 10.8941 82.7884 10.7297 82.8515 10.5762C82.9145 10.4227 83.0071 10.2833 83.124 10.1657C83.2409 10.0482 83.3797 9.95496 83.5326 9.89134C83.6855 9.82772 83.8494 9.79498 84.0149 9.79498H89.8496C90.1842 9.79498 90.505 9.92827 90.7416 10.1655C90.9782 10.4028 91.1111 10.7246 91.1111 11.0601ZM76.4521 17.2706C74.7444 17.2706 73.1065 17.9509 71.899 19.1619C70.6914 20.373 70.013 22.0155 70.013 23.7281V24.9208C70.013 26.6334 70.6914 28.2759 71.899 29.487C73.1065 30.698 74.7444 31.3783 76.4521 31.3783C78.1599 31.3783 79.7978 30.698 81.0053 29.487C82.2129 28.2759 82.8913 26.6334 82.8913 24.9208V23.7281C82.8913 22.0155 82.2129 20.373 81.0053 19.1619C79.7978 17.9509 78.1599 17.2706 76.4521 17.2706Z" fill="#3A424D"/>
</svg>
