<svg width="145" height="40" viewBox="0 0 145 40" fill="none" xmlns="http://www.w3.org/2000/svg">
<g opacity="0.9">
<path opacity="0.9" d="M29.6545 19.84C29.6176 26.1512 27.8949 31.0243 24.4864 34.4644C21.041 37.9414 16.3049 39.6799 10.2729 39.6799H9.11388C7.73888 39.6799 6.62203 38.5631 6.62203 37.1881C6.62203 35.8131 7.73888 34.6962 9.11388 34.6962H10.9472C15.1038 34.6962 18.3068 33.3002 20.5564 30.5028C22.7637 27.7422 23.9069 24.1915 23.9807 19.8452C23.9069 15.499 22.7637 11.9272 20.5564 9.13502C18.3068 6.3745 15.1091 4.9995 10.9472 4.9995H9.11388C7.73888 4.9995 6.62203 3.88265 6.62203 2.50765C6.61676 1.11685 7.73361 0 9.11388 0H10.2729C16.3049 0 21.041 1.71743 24.4864 5.15755C27.8897 8.63454 29.6124 13.5287 29.6545 19.84Z" fill="#3657FF"/>
<path opacity="0.9" d="M2.53399 39.8747C3.93348 39.8747 5.06799 38.7284 5.06799 37.3144C5.06799 35.9003 3.93348 34.754 2.53399 34.754C1.13451 34.754 0 35.9003 0 37.3144C0 38.7284 1.13451 39.8747 2.53399 39.8747Z" fill="#3657FF"/>
</g>
<g opacity="0.9">
<path opacity="0.9" d="M18.323 20.1601C18.3599 26.4714 20.0826 31.3444 23.4911 34.7845C26.9365 38.2615 31.6725 40 37.7046 40H38.8636C40.2386 40 41.3555 38.8832 41.3555 37.5082C41.3555 36.1332 40.2386 35.0163 38.8636 35.0163H37.0303C32.8737 35.0163 29.6706 33.6203 27.4264 30.8229C25.219 28.0624 24.0758 24.5116 24.0021 20.1654C24.0758 15.8191 25.219 12.2473 27.4264 9.45515C29.6759 6.69463 32.8737 5.31963 37.0303 5.31963H38.8636C40.2386 5.31963 41.3555 4.20278 41.3555 2.82779C41.3555 1.45279 40.2386 0.335938 38.8636 0.335938H37.7046C31.6725 0.335938 26.9365 2.05336 23.4911 5.49348C20.0826 8.95467 18.3599 13.8488 18.323 20.1601Z" fill="#3DDC97"/>
<path opacity="0.9" d="M45.4538 5.43671C46.8533 5.43671 47.9878 4.29041 47.9878 2.87637C47.9878 1.46234 46.8533 0.31604 45.4538 0.31604C44.0544 0.31604 42.9198 1.46234 42.9198 2.87637C42.9198 4.29041 44.0544 5.43671 45.4538 5.43671Z" fill="#3DDC97"/>
</g>
<path d="M49.1083 14.3835C48.7291 14.6489 48.2299 14.611 47.876 14.314C47.6801 14.1497 47.4715 13.998 47.244 13.8526C46.8522 13.5935 46.3782 13.366 45.8284 13.1701C45.2723 12.9742 44.6719 12.8794 44.021 12.8794C42.9151 12.8794 42.0682 13.1196 41.4805 13.6062C40.8928 14.0865 40.6021 14.6236 40.6021 15.2177C40.6021 15.9318 40.8928 16.4753 41.4805 16.8545C42.0682 17.2273 42.8076 17.5623 43.705 17.8593C44.6024 18.1563 45.563 18.4407 46.5868 18.7251C47.6106 19.0032 48.5711 19.395 49.4685 19.8942C50.3659 20.3935 51.1053 21.0444 51.693 21.8533C52.2681 22.6433 52.5588 23.6734 52.5715 24.9373C52.5778 25.6198 52.483 26.3087 52.2618 26.9596C51.87 28.1034 51.1812 29.0956 50.2016 29.9298C49.4369 30.5807 48.508 31.0989 47.4147 31.4718C46.3214 31.8447 45.108 32.0343 43.7745 32.0343C42.2136 32.0343 40.8738 31.8257 39.7679 31.4023C38.662 30.9789 37.733 30.5049 36.9809 29.9867C36.2731 29.5127 35.6475 28.9692 35.1103 28.3499C34.7627 27.9518 34.7311 27.3577 35.0155 26.9153C35.1735 26.6752 35.4073 26.3782 35.7486 26.0369C36.2479 25.5377 36.6397 25.2406 36.9557 25.07C37.3854 24.8299 37.9036 24.9183 38.2512 25.2659C38.6177 25.6325 39.0222 25.9674 39.4645 26.2707C39.9828 26.6057 40.5958 26.9217 41.2972 27.2124C41.9987 27.5031 42.8203 27.6484 43.7619 27.6484C45.1269 27.6484 46.1254 27.383 46.7385 26.8521C47.3578 26.3213 47.6674 25.6514 47.6674 24.8425C47.6674 24.16 47.3767 23.6228 46.789 23.231C46.2013 22.8392 45.4619 22.4979 44.5645 22.2009C43.6671 21.9039 42.7065 21.6195 41.6827 21.3351C40.659 21.057 39.6984 20.6652 38.801 20.166C37.9036 19.6667 37.1642 19.0221 36.5765 18.2258C35.9887 17.4296 35.698 16.3679 35.698 15.0281C35.698 14.2192 35.9003 13.4166 36.311 12.6203C36.7155 11.824 37.2906 11.1289 38.0237 10.5159C38.7567 9.9092 39.6289 9.41626 40.6337 9.04341C41.6448 8.67055 42.7634 8.48096 44.002 8.48096C45.2723 8.48096 46.3782 8.65159 47.3262 8.99285C48.2678 9.33411 49.0704 9.70065 49.7213 10.0925C50.2522 10.4148 50.7135 10.7687 51.118 11.1605C51.4087 11.4449 51.4592 11.8999 51.2254 12.2348C51.0168 12.5255 50.7135 12.9237 50.2585 13.4166C49.9172 13.7831 49.4749 14.1244 49.1083 14.3835Z" fill="#0F0C3D"/>
<path d="M65.6093 32.0153C64.4338 32.0153 63.3848 31.851 62.4558 31.5287C61.5268 31.2064 60.7369 30.8462 60.0859 30.4544C59.3023 29.9994 58.6198 29.4622 58.0321 28.8429V39.8201C58.0321 39.9212 57.9499 39.997 57.8551 39.997H53.3239C53.2228 39.997 53.147 39.9149 53.147 39.8201V8.69586C53.147 8.59475 53.2291 8.51891 53.3239 8.51891H56.9514C57.5518 8.51891 58.0321 9.00552 58.0321 9.59957V10.2442V11.11C58.0321 11.2616 58.209 11.3438 58.3228 11.2427C58.841 10.7877 59.4287 10.3769 60.0796 10.0103C60.7305 9.63749 61.5205 9.28359 62.4495 8.95497C63.3785 8.62635 64.4275 8.46204 65.603 8.46204C67.1323 8.46204 68.5922 8.76538 69.9762 9.37838C71.3602 9.99139 72.5799 10.8193 73.6416 11.8746C74.6969 12.9237 75.5375 14.175 76.1568 15.6159C76.7761 17.0567 77.0858 18.5987 77.0858 20.2292C77.0858 21.8913 76.7761 23.4396 76.1568 24.8678C75.5375 26.2961 74.6969 27.5347 73.6416 28.5901C72.5799 29.6391 71.3602 30.4733 69.9762 31.0863C68.5985 31.712 67.1387 32.0153 65.6093 32.0153ZM65.1227 12.8668C64.2127 12.8668 63.3342 13.0564 62.4874 13.4419C61.6406 13.8274 60.8822 14.3456 60.2187 15.0092C59.5488 15.6727 59.0242 16.4437 58.6324 17.3348C58.2406 18.2259 58.0447 19.1928 58.0447 20.2355C58.0447 21.2783 58.2406 22.2515 58.6324 23.1426C59.0242 24.0336 59.5551 24.8109 60.2187 25.4682C60.8885 26.1317 61.6406 26.65 62.4874 27.0355C63.3342 27.421 64.2127 27.6105 65.1227 27.6105C66.0327 27.6105 66.9111 27.421 67.758 27.0355C68.6048 26.65 69.3632 26.1317 70.0267 25.4682C70.6966 24.8046 71.2211 24.0336 71.613 23.1426C72.0048 22.2515 72.2007 21.2846 72.2007 20.2355C72.2007 19.1928 72.0048 18.2259 71.613 17.3348C71.2211 16.4437 70.6903 15.6664 70.0267 15.0092C69.3568 14.3456 68.6048 13.8274 67.758 13.4419C66.9111 13.0627 66.0327 12.8668 65.1227 12.8668Z" fill="#0F0C3D"/>
<path d="M82.9188 31.9647H78.3055C78.2296 31.9647 78.1664 31.9015 78.1664 31.8257V0.139032C78.1664 0.0631963 78.2296 0 78.3055 0H82.9188C82.9946 0 83.0578 0.0631963 83.0578 0.139032V31.8257C83.0578 31.9079 82.9946 31.9647 82.9188 31.9647Z" fill="#0F0C3D"/>
<path d="M89.8826 21.3667C89.4339 21.3667 89.0927 21.7964 89.219 22.2325C89.3644 22.7381 89.5666 23.231 89.8321 23.7239C90.2365 24.4886 90.761 25.1585 91.393 25.7273C92.025 26.296 92.7707 26.751 93.6175 27.1049C94.4644 27.4525 95.3744 27.6295 96.3539 27.6295C97.4915 27.6295 98.5089 27.4399 99.4063 27.067C100.304 26.6942 101.043 26.2771 101.631 25.8221C102.124 25.4239 102.572 24.9879 102.983 24.5202C103.242 24.2295 103.697 24.2232 103.969 24.4949L104.829 25.3544L106.168 26.6942C106.427 26.9533 106.434 27.3704 106.187 27.6421C105.555 28.3499 104.816 28.9945 103.975 29.5759C103.097 30.1952 102.023 30.7577 100.752 31.2633C99.4821 31.7688 98.016 32.0216 96.3539 32.0216C94.6919 32.0216 93.1309 31.7056 91.6648 31.08C90.1986 30.4543 88.9031 29.5886 87.7845 28.4889C86.6596 27.3893 85.7748 26.1191 85.1239 24.6719C84.473 23.2247 84.1444 21.6764 84.1444 20.0143C84.1444 18.4154 84.4604 16.9114 85.0987 15.5147C85.7369 14.1181 86.5901 12.8984 87.6644 11.8683C88.7388 10.8319 90.0027 10.0103 91.4499 9.39731C92.8971 8.7843 94.4517 8.48096 96.1138 8.48096C97.7758 8.48096 99.3052 8.7527 100.708 9.28987C102.111 9.82704 103.318 10.5854 104.348 11.5523C105.372 12.5255 106.175 13.6694 106.743 14.9965C107.312 16.3236 107.597 17.7708 107.597 19.3381C107.597 19.6794 107.578 19.989 107.546 20.2608C107.514 20.5388 107.483 20.7853 107.445 21.0002C107.413 21.2466 107.382 21.3667 107.35 21.3667C107.047 21.3667 106.958 21.3667 106.958 21.3667H89.8826V21.3667ZM96.1011 12.6266C94.2432 12.6266 92.7328 13.0817 91.5573 13.9854C90.6726 14.6679 90.009 15.4768 89.573 16.4121C89.3644 16.8545 89.712 17.3664 90.2049 17.3664H101.865C102.358 17.3664 102.68 16.8608 102.497 16.4058C102.117 15.4768 101.492 14.6679 100.62 13.9854C99.4632 13.0753 97.9591 12.6266 96.1011 12.6266Z" fill="#0F0C3D"/>
<path d="M108.962 21.3667C108.962 21.3667 108.874 21.3667 108.57 21.3667C108.539 21.3667 108.507 21.2466 108.476 21.0002C108.444 20.7853 108.412 20.5388 108.374 20.2608C108.343 19.9827 108.324 19.673 108.324 19.3381C108.324 17.7645 108.608 16.3173 109.177 14.9965C109.746 13.6694 110.542 12.5255 111.572 11.5523C112.596 10.5791 113.809 9.82704 115.212 9.28987C116.615 8.7527 118.145 8.48096 119.807 8.48096C121.469 8.48096 123.023 8.7843 124.471 9.39731C125.918 10.0103 127.182 10.8319 128.256 11.8683C129.33 12.9047 130.184 14.1181 130.822 15.5147C131.46 16.9114 131.776 18.4091 131.776 20.0143C131.776 21.6764 131.454 23.231 130.797 24.6719C130.146 26.1128 129.261 27.3893 128.136 28.4889C127.011 29.5886 125.716 30.4543 124.256 31.08C122.79 31.7056 121.229 32.0216 119.567 32.0216C117.904 32.0216 116.438 31.7688 115.168 31.2633C113.898 30.7577 112.823 30.1952 111.945 29.5759C111.098 28.9945 110.365 28.3499 109.733 27.6421C109.487 27.3704 109.493 26.9533 109.752 26.6942L111.092 25.3544L111.951 24.4949C112.229 24.2169 112.684 24.2232 112.937 24.5202C113.348 24.9879 113.797 25.4239 114.29 25.8221C114.877 26.2771 115.617 26.6942 116.514 27.067C117.412 27.4399 118.429 27.6295 119.567 27.6295C120.546 27.6295 121.456 27.4525 122.303 27.1049C123.15 26.7574 123.889 26.296 124.527 25.7273C125.166 25.1585 125.684 24.4949 126.088 23.7239C126.348 23.2373 126.55 22.7381 126.701 22.2325C126.828 21.8028 126.487 21.3667 126.038 21.3667H108.962ZM115.282 13.9854C114.41 14.6679 113.784 15.4768 113.405 16.4058C113.215 16.8608 113.544 17.3664 114.037 17.3664H125.697C126.19 17.3664 126.537 16.8545 126.329 16.4121C125.886 15.4768 125.229 14.6679 124.344 13.9854C123.169 13.0817 121.658 12.6266 119.8 12.6266C117.942 12.6266 116.438 13.0753 115.282 13.9854Z" fill="#0F0C3D"/>
<path d="M135.826 0.265503H138.057C138.658 0.265503 139.138 0.752115 139.138 1.34616V5.43497V6.59752C139.138 7.19788 138.958 8.51263 141.043 8.51263H142.936C143.536 8.51263 144.017 8.99925 144.017 9.59329V11.8241C144.017 12.4245 143.53 12.9048 142.936 12.9048H140.219C139.618 12.9048 139.138 13.3914 139.138 13.9854V24.7099C139.138 25.563 139.416 26.2582 139.966 26.7953C140.522 27.3325 141.217 27.6043 142.064 27.6043C142.683 27.6043 143.239 27.5284 143.726 27.3704C143.985 27.3072 144.244 27.2314 144.51 27.1366V27.6611V30.6819C144.51 31.2001 144.149 31.6488 143.644 31.7436C143.606 31.7499 143.568 31.7563 143.536 31.7626C142.822 31.9269 142.007 32.0091 141.091 32.0091C138.879 32.0091 137.185 31.415 136.01 30.2206C134.834 29.0262 134.253 27.2377 134.253 24.8489V13.9981C134.253 13.3977 133.766 12.9174 133.172 12.9174H130.941C130.341 12.9174 129.861 12.4308 129.861 11.8368V9.60593C129.861 9.00556 130.347 8.52527 130.941 8.52527H132.3C133.046 8.52527 133.646 8.26617 134.082 7.75428C134.525 7.23607 134.739 6.46507 134.739 5.43497V1.35248C134.746 0.752115 135.232 0.265503 135.826 0.265503Z" fill="#0F0C3D"/>
</svg>
