<svg width="134" height="24" viewBox="0 0 134 24" fill="none" xmlns="http://www.w3.org/2000/svg">
<path d="M47.6041 6.60214L50.6323 14.1493L53.6613 6.60214C53.6802 6.55889 53.7111 6.52198 53.7504 6.49581C53.7897 6.46964 53.8357 6.45531 53.8829 6.45452H55.9022C55.9209 6.45554 55.9392 6.46083 55.9556 6.47C55.972 6.47916 55.986 6.49195 55.9967 6.50739C56.0074 6.52283 56.0145 6.54051 56.0173 6.55908C56.0201 6.57765 56.0186 6.59662 56.013 6.61453L51.556 17.5729C51.5392 17.6152 51.5105 17.6517 51.4733 17.6779C51.4362 17.7041 51.3922 17.719 51.3467 17.7206H50.1155C50.07 17.719 50.026 17.7041 49.9889 17.6779C49.9517 17.6517 49.923 17.6152 49.9063 17.5729L46.7789 9.81688L43.664 17.5733C43.6504 17.6176 43.6225 17.6561 43.5846 17.6828C43.5467 17.7096 43.5011 17.723 43.4548 17.7209H42.2238C42.178 17.721 42.1332 17.7068 42.0958 17.6804C42.0583 17.6539 42.0299 17.6165 42.0146 17.5733L37.496 6.61556C37.4877 6.59873 37.4838 6.58006 37.4846 6.5613C37.4855 6.54254 37.4911 6.5243 37.5009 6.5083C37.5108 6.4923 37.5245 6.47907 37.5409 6.46984C37.5572 6.46061 37.5757 6.45569 37.5944 6.45555H39.6247C39.6702 6.45716 39.7142 6.47199 39.7513 6.4982C39.7885 6.52442 39.8172 6.5609 39.834 6.60317L42.8622 14.1504L45.9049 6.60214C45.9202 6.55891 45.9485 6.52149 45.986 6.49505C46.0235 6.46861 46.0682 6.45445 46.1141 6.45452H47.3453C47.3986 6.44758 47.4527 6.45825 47.4994 6.4849C47.546 6.51155 47.5827 6.55272 47.6038 6.60214H47.6041Z" fill="#49A747"/>
<path d="M63.0939 6.22154C63.8684 6.20135 64.6388 6.33924 65.3582 6.62678C66.0776 6.91432 66.7308 7.34548 67.2779 7.89393C67.8251 8.44237 68.2547 9.0966 68.5406 9.81665C68.8264 10.5367 68.9625 11.3075 68.9405 12.0819C68.9405 13.6263 68.3269 15.1076 67.2348 16.1997C66.1427 17.2918 64.6615 17.9053 63.117 17.9053C61.5725 17.9053 60.0913 17.2918 58.9992 16.1997C57.907 15.1076 57.2935 13.6263 57.2935 12.0819C57.2735 11.3119 57.4093 10.5458 57.693 9.82966C57.9766 9.11353 58.4021 8.46217 58.944 7.91473C59.4858 7.36729 60.1328 6.93509 60.846 6.64412C61.5591 6.35314 62.3238 6.2094 63.0939 6.22154ZM63.0939 15.8C63.5722 15.8005 64.0456 15.7041 64.4856 15.5167C64.9257 15.3294 65.3232 15.0549 65.6544 14.7098C65.9856 14.3647 66.2434 13.9562 66.4125 13.5088C66.5816 13.0614 66.6585 12.5845 66.6383 12.1066C66.6383 11.1662 66.2648 10.2643 65.5998 9.59938C64.9348 8.93442 64.033 8.56085 63.0926 8.56085C62.1522 8.56085 61.2503 8.93442 60.5853 9.59938C59.9204 10.2643 59.5468 11.1662 59.5468 12.1066C59.5267 12.5847 59.6036 13.0619 59.7728 13.5095C59.9421 13.957 60.2002 14.3657 60.5317 14.7108C60.8631 15.0559 61.261 15.3303 61.7014 15.5175C62.1417 15.7047 62.6154 15.8008 63.0939 15.8Z" fill="#49A747"/>
<path d="M78.2725 8.21645C78.268 8.24731 78.2574 8.27696 78.2412 8.30366C78.2251 8.33035 78.2038 8.35355 78.1786 8.37189C78.1533 8.39023 78.1247 8.40334 78.0943 8.41045C78.0639 8.41756 78.0324 8.41852 78.0017 8.41328C77.784 8.39918 77.5656 8.39918 77.3479 8.41328C76.7231 8.45087 76.1177 8.64401 75.5866 8.97515C75.0555 9.30629 74.6156 9.76493 74.3069 10.3094V17.5238C74.3087 17.555 74.3039 17.5862 74.2928 17.6154C74.2816 17.6446 74.2645 17.6711 74.2424 17.6932C74.2203 17.7153 74.1938 17.7325 74.1645 17.7436C74.1353 17.7548 74.1041 17.7596 74.0729 17.7578H72.2646C72.2334 17.7596 72.2022 17.7548 72.1729 17.7436C72.1437 17.7325 72.1172 17.7153 72.0951 17.6932C72.073 17.6711 72.0558 17.6446 72.0447 17.6154C72.0336 17.5862 72.0288 17.555 72.0306 17.5238V6.6896C72.0288 6.6584 72.0336 6.62717 72.0447 6.59797C72.0558 6.56876 72.073 6.54224 72.0951 6.52014C72.1172 6.49804 72.1437 6.48087 72.1729 6.46975C72.2022 6.45862 72.2334 6.4538 72.2646 6.4556H74.0127C74.0429 6.45555 74.0727 6.46167 74.1005 6.47357C74.1282 6.48548 74.1532 6.50292 74.1739 6.52483C74.1947 6.54674 74.2107 6.57265 74.2211 6.60098C74.2315 6.62932 74.236 6.65947 74.2343 6.6896V7.74845C74.6337 7.25547 75.1413 6.86126 75.7179 6.5965C76.2944 6.33174 76.9243 6.20357 77.5585 6.22195H78.2233C78.2532 6.22323 78.2824 6.2309 78.309 6.24443C78.3357 6.25796 78.3591 6.27704 78.3777 6.30038C78.3964 6.32373 78.4098 6.3508 78.4171 6.37977C78.4245 6.40874 78.4255 6.43894 78.4201 6.46833L78.2725 8.21645Z" fill="#49A747"/>
<path d="M91.8769 17.7209H89.2543C89.1664 17.7204 89.0823 17.685 89.0203 17.6225L83.5296 12.2051V17.4869C83.5313 17.5171 83.5268 17.5472 83.5164 17.5756C83.5061 17.6039 83.49 17.6298 83.4693 17.6517C83.4485 17.6736 83.4235 17.6911 83.3958 17.703C83.368 17.7149 83.3382 17.721 83.308 17.7209H81.4842C81.4221 17.7209 81.3626 17.6963 81.3187 17.6524C81.2748 17.6085 81.2502 17.549 81.2502 17.4869V0.927675C81.2534 0.867488 81.2797 0.810852 81.3236 0.769568C81.3675 0.728284 81.4256 0.705536 81.4859 0.706064H83.3097C83.3685 0.706064 83.4249 0.729412 83.4664 0.770972C83.508 0.812532 83.5313 0.8689 83.5313 0.927675V10.777L88.1342 6.55399C88.1961 6.50085 88.2743 6.47049 88.3559 6.46796H91.1012C91.1255 6.46394 91.1505 6.46815 91.1722 6.47991C91.1938 6.49167 91.2109 6.51032 91.2208 6.53291C91.2307 6.55549 91.2327 6.58073 91.2267 6.60461C91.2206 6.6285 91.2067 6.64968 91.1873 6.6648L85.7702 11.5895L91.9261 17.573C91.9389 17.5991 91.941 17.6292 91.9317 17.6569C91.9225 17.6845 91.9028 17.7074 91.8769 17.7206V17.7209Z" fill="#49A747"/>
<path d="M96.4816 23.4704H94.6577C94.6276 23.4704 94.5977 23.4643 94.57 23.4524C94.5423 23.4405 94.5172 23.4231 94.4965 23.4012C94.4757 23.3793 94.4597 23.3533 94.4493 23.325C94.4389 23.2967 94.4345 23.2665 94.4361 23.2364V6.68953C94.4345 6.6594 94.4389 6.62925 94.4493 6.60091C94.4597 6.57258 94.4757 6.54666 94.4965 6.52476C94.5172 6.50285 94.5423 6.48541 94.57 6.4735C94.5977 6.4616 94.6276 6.45548 94.6577 6.45553H96.4059C96.4679 6.45553 96.5274 6.48018 96.5713 6.52407C96.6152 6.56795 96.6399 6.62747 96.6399 6.68953V7.48995C97.624 6.66255 98.8773 6.22452 100.163 6.2587C101.129 6.24581 102.081 6.49239 102.92 6.97274C103.812 7.49353 104.554 8.23716 105.072 9.13073C105.59 10.0243 105.866 11.0371 105.875 12.07C105.884 13.1028 105.624 14.1201 105.121 15.0223C104.618 15.9244 103.889 16.6804 103.006 17.2161C102.141 17.7 101.166 17.954 100.175 17.9539C98.9293 17.9759 97.7193 17.5375 96.7768 16.7226V23.2364C96.7781 23.2731 96.7708 23.3095 96.7554 23.3428C96.74 23.3762 96.717 23.4054 96.6882 23.4282C96.6594 23.4509 96.6257 23.4666 96.5898 23.474C96.5538 23.4813 96.5166 23.4801 96.4812 23.4704H96.4816ZM96.7156 14.2481C97.0724 14.735 97.537 15.1329 98.073 15.4105C98.6091 15.6882 99.2021 15.8381 99.8057 15.8486C100.785 15.8486 101.725 15.4594 102.417 14.7668C103.11 14.0741 103.499 13.1347 103.499 12.1551C103.511 11.6732 103.425 11.1939 103.248 10.7455C103.071 10.2972 102.806 9.88878 102.469 9.54455C102.131 9.20031 101.728 8.92719 101.284 8.74133C100.839 8.55547 100.361 8.46063 99.8794 8.46242C99.2587 8.46445 98.6468 8.60997 98.0917 8.88761C97.5365 9.16525 97.0531 9.56749 96.6791 10.0629L96.7156 14.2481Z" fill="#49A747"/>
<path d="M117.153 16.7113C116.186 17.534 114.95 17.9722 113.681 17.9426C112.689 17.9441 111.714 17.6896 110.849 17.2037C109.965 16.6686 109.234 15.9143 108.726 15.0139C108.218 14.1135 107.952 13.0973 107.952 12.0637C107.952 11.03 108.218 10.0138 108.726 9.11341C109.234 8.21297 109.965 7.45872 110.849 6.92358C111.687 6.44038 112.64 6.1936 113.607 6.20953C114.891 6.17804 116.143 6.61578 117.128 7.44079V6.68958C117.126 6.65945 117.131 6.6293 117.141 6.60096C117.151 6.57263 117.168 6.54671 117.188 6.5248C117.209 6.5029 117.234 6.48545 117.262 6.47355C117.289 6.46165 117.319 6.45553 117.35 6.45558H119.098C119.16 6.45558 119.219 6.48023 119.263 6.52412C119.307 6.568 119.332 6.62752 119.332 6.68958V17.4869C119.332 17.549 119.307 17.6085 119.263 17.6524C119.219 17.6963 119.16 17.7209 119.098 17.7209H117.374C117.344 17.721 117.314 17.7149 117.286 17.703C117.258 17.6911 117.233 17.6736 117.213 17.6517C117.192 17.6298 117.176 17.6039 117.166 17.5756C117.155 17.5472 117.151 17.5171 117.152 17.4869L117.153 16.7113ZM117.079 9.97693C116.701 9.48184 116.216 9.08004 115.658 8.80254C115.101 8.52504 114.488 8.37926 113.865 8.37644C113.383 8.37465 112.906 8.46947 112.461 8.65529C112.016 8.84111 111.613 9.11416 111.276 9.45833C110.939 9.80249 110.674 10.2108 110.497 10.6591C110.32 11.1074 110.234 11.5866 110.246 12.0685C110.246 13.048 110.635 13.9875 111.327 14.6801C112.02 15.3728 112.959 15.7619 113.939 15.7619C114.543 15.7682 115.141 15.6348 115.686 15.3722C116.23 15.1095 116.707 14.7247 117.078 14.2478L117.079 9.97693Z" fill="#49A747"/>
<path d="M123.468 23.3104L126.448 16.5389L121.708 6.61559C121.699 6.59876 121.696 6.58009 121.696 6.56133C121.697 6.54257 121.703 6.52433 121.713 6.50833C121.723 6.49233 121.736 6.4791 121.753 6.46987C121.769 6.46064 121.787 6.45572 121.806 6.45558H123.862C123.927 6.45621 123.99 6.47501 124.044 6.50981C124.099 6.54462 124.142 6.59404 124.17 6.65241L127.593 13.8789L130.769 6.59047C130.786 6.54949 130.816 6.51465 130.853 6.49047C130.89 6.46629 130.934 6.45389 130.978 6.45489H133.059C133.078 6.45504 133.096 6.45995 133.112 6.46918C133.129 6.47841 133.143 6.49164 133.152 6.50764C133.162 6.52364 133.168 6.54188 133.169 6.56064C133.17 6.5794 133.166 6.59808 133.157 6.6149L125.882 23.3349C125.864 23.3758 125.835 23.4107 125.798 23.4349C125.761 23.459 125.717 23.4714 125.672 23.4704H123.579C123.561 23.4695 123.542 23.4642 123.526 23.4551C123.51 23.4459 123.495 23.4331 123.485 23.4177C123.474 23.4023 123.467 23.3846 123.464 23.366C123.461 23.3474 123.463 23.3284 123.468 23.3104Z" fill="#49A747"/>
<path d="M29.9245 8.2529L26.7242 5.05261C26.4174 4.74253 26.0521 4.49637 25.6496 4.32837C25.247 4.16037 24.8151 4.07387 24.3789 4.07387C23.9427 4.07387 23.5108 4.16037 23.1082 4.32837C22.7056 4.49637 22.3404 4.74253 22.0336 5.05261L15.4461 11.6263L8.85938 5.05192C8.55256 4.74184 8.18729 4.49568 7.78472 4.32768C7.38215 4.15968 6.95026 4.07318 6.51404 4.07318C6.07783 4.07318 5.64594 4.15968 5.24336 4.32768C4.84079 4.49568 4.47553 4.74184 4.16871 5.05192L0.968425 8.25221C0.348205 8.87519 0 9.71847 0 10.5975C0 11.4766 0.348205 12.3199 0.968425 12.9429L7.12365 19.0991C7.74662 19.7193 8.5899 20.0676 9.46898 20.0676C10.3481 20.0676 11.1913 19.7193 11.8143 19.0991L14.7692 16.1442L15.3973 15.5162L17.3415 13.5716L23.929 6.99722C24.0352 6.89118 24.1791 6.83163 24.3292 6.83163C24.4792 6.83163 24.6232 6.89118 24.7294 6.99722L27.9297 10.1975C28.0357 10.3037 28.0953 10.4476 28.0953 10.5977C28.0953 10.7478 28.0357 10.8917 27.9297 10.9979L21.7744 17.1545C21.6682 17.2606 21.5243 17.3201 21.3742 17.3201C21.2242 17.3201 21.0802 17.2606 20.974 17.1545L17.3666 13.5471V17.4374L19.0528 19.1735C19.6758 19.7937 20.5191 20.1419 21.3981 20.1419C22.2772 20.1419 23.1205 19.7937 23.7435 19.1735L29.9001 13.0175C30.22 12.7094 30.4749 12.3404 30.6498 11.9321C30.8247 11.5238 30.916 11.0846 30.9183 10.6405C30.9206 10.1963 30.8339 9.75619 30.6633 9.34611C30.4926 8.93603 30.2416 8.56431 29.9249 8.2529H29.9245ZM9.84424 17.179C9.73804 17.285 9.5941 17.3445 9.44403 17.3445C9.29396 17.3445 9.15002 17.285 9.04382 17.179L2.8886 11.023C2.78256 10.9168 2.72301 10.7729 2.72301 10.6228C2.72301 10.4728 2.78256 10.3288 2.8886 10.2226L6.15117 6.99687C6.25737 6.89084 6.40131 6.83128 6.55138 6.83128C6.70145 6.83128 6.84539 6.89084 6.95159 6.99687L13.538 13.5716L9.84424 17.179Z" fill="#FCB319"/>
</svg>
